<svg viewBox="-1.335 -1.335 64 64" xmlns="http://www.w3.org/2000/svg" id="Maps-Mark--Streamline-Ultimate" height="64" width="64">
  <desc>
    Maps Mark Streamline Icon: https://streamlinehq.com
  </desc>
  <path d="M1.3927020833333332 50.26760124999999A2.5554166666666664 2.5554166666666664 0 0 0 3.3220416666666663 52.897124999999996l12.636535416666666 3.158495a2.5554166666666664 2.5554166666666664 0 0 0 1.2930408333333332 -0.012777083333333333l12.738752083333333 -3.4728112499999995a2.5554166666666664 2.5554166666666664 0 0 1 1.3441491666666665 0l12.738752083333333 3.4728112499999995a2.5554166666666664 2.5554166666666664 0 0 0 1.2930408333333332 0.012777083333333333L58.00795833333333 52.897124999999996a2.5554166666666664 2.5554166666666664 0 0 0 1.931895 -2.6167466666666663l-2.2692099999999997 -42.01105a2.5554166666666664 2.5554166666666664 0 0 0 -3.224935833333333 -2.3254291666666664l-10.295773749999999 2.8109583333333332a2.527307083333333 2.527307083333333 0 0 1 -1.4054791666666666 -0.017887916666666667l-11.34605 -3.4191475a2.5554166666666664 2.5554166666666664 0 0 0 -1.4668091666666665 0L18.588100833333332 8.719081666666666a2.527307083333333 2.527307083333333 0 0 1 -1.4054791666666666 0.017887916666666667L6.8996249999999995 5.931122083333333a2.5554166666666664 2.5554166666666664 0 0 0 -3.224935833333333 2.3254291666666664Z" fill="none" stroke="#efb734" stroke-linecap="round" stroke-linejoin="round" stroke-width="2.67"></path>
  <path d="m39.61151374999999 19.152847916666666 10.221666666666666 10.221666666666666" fill="none" stroke="#efb734" stroke-linecap="round" stroke-linejoin="round" stroke-width="2.67"></path>
  <path d="m39.61151374999999 29.37451458333333 10.221666666666666 -10.221666666666666" fill="none" stroke="#efb734" stroke-linecap="round" stroke-linejoin="round" stroke-width="2.67"></path>
  <path d="m10.221666666666666 31.929931249999996 4.045224583333333 -0.95828125" fill="none" stroke="#efb734" stroke-linecap="round" stroke-linejoin="round" stroke-width="2.67"></path>
  <path d="m19.755926249999998 34.09181374999999 1.9651154166666664 2.948950833333333" fill="none" stroke="#efb734" stroke-linecap="round" stroke-linejoin="round" stroke-width="2.67"></path>
  <path d="m26.831874999999997 42.15159791666667 3.833125 0" fill="none" stroke="#efb734" stroke-linecap="round" stroke-linejoin="round" stroke-width="2.67"></path>
  <path d="m34.498124999999995 38.318472916666664 2.5554166666666664 -2.5554166666666664" fill="none" stroke="#efb734" stroke-linecap="round" stroke-linejoin="round" stroke-width="2.67"></path>
</svg>