<svg xmlns="http://www.w3.org/2000/svg" viewBox="-1.335 -1.335 64 64" id="Align-Middle-Move-Vertical--Streamline-Ultimate" height="64" width="64">
  <desc>
    Align Middle Move Vertical Streamline Icon: https://streamlinehq.com
  </desc>
  <defs></defs>
  <title>align-middle-move-vertical</title>
  <path d="m19.165625 30.665 -17.887916666666666 0" fill="none" stroke="#efb734" stroke-linecap="round" stroke-linejoin="round" stroke-width="2.67"></path>
  <path d="m60.05229166666666 30.665 -15.3325 0" fill="none" stroke="#efb734" stroke-linecap="round" stroke-linejoin="round" stroke-width="2.67"></path>
  <path d="m34.498124999999995 45.997499999999995 0 -30.665s0 -2.5554166666666664 2.5554166666666664 -2.5554166666666664l5.110833333333333 0s2.5554166666666664 0 2.5554166666666664 2.5554166666666664l0 30.665s0 2.5554166666666664 -2.5554166666666664 2.5554166666666664l-5.110833333333333 0s-2.5554166666666664 0 -2.5554166666666664 -2.5554166666666664" fill="none" stroke="#efb734" stroke-linecap="round" stroke-linejoin="round" stroke-width="2.67"></path>
  <path d="m19.165625 40.88666666666666 0 -20.44333333333333s0 -2.5554166666666664 2.5554166666666664 -2.5554166666666664l5.110833333333333 0s2.5554166666666664 0 2.5554166666666664 2.5554166666666664l0 20.44333333333333s0 2.5554166666666664 -2.5554166666666664 2.5554166666666664l-5.110833333333333 0s-2.5554166666666664 0 -2.5554166666666664 -2.5554166666666664" fill="none" stroke="#efb734" stroke-linecap="round" stroke-linejoin="round" stroke-width="2.67"></path>
  <path d="m6.388541666666666 7.66625 0 15.3325" fill="none" stroke="#efb734" stroke-linecap="round" stroke-linejoin="round" stroke-width="2.67"></path>
  <path d="m11.499374999999999 17.887916666666666 -5.110833333333333 5.110833333333333 -5.110833333333333 -5.110833333333333" fill="none" stroke="#efb734" stroke-linecap="round" stroke-linejoin="round" stroke-width="2.67"></path>
  <path d="m54.94145833333333 53.66374999999999 0 -15.3325" fill="none" stroke="#efb734" stroke-linecap="round" stroke-linejoin="round" stroke-width="2.67"></path>
  <path d="m49.830625 43.44208333333333 5.110833333333333 -5.110833333333333 5.110833333333333 5.110833333333333" fill="none" stroke="#efb734" stroke-linecap="round" stroke-linejoin="round" stroke-width="2.67"></path>
  <path d="m34.498124999999995 30.665 -5.110833333333333 0" fill="none" stroke="#efb734" stroke-linecap="round" stroke-linejoin="round" stroke-width="2.67"></path>
</svg>